{"title":"Infamous.Assassinations.Indira.Gandhi.(2007).TVRip.(DivX).","uid":6658383,"size":305390048,"categoryP":"video","categoryS":"tv_shows","magnet":"?xt=urn:btih:595c9bcf6d3a93721419e140d893f15436235439&amp;dn=Infamous.Assassinations.Indira.Gandhi.%282007%29.TVRip.%28DivX%29.&amp;tr=udp%3A%2F%2Ftracker.openbittorrent.com%3A80&amp;tr=udp%3A%2F%2Fopen.demonii.com%3A1337&amp;tr=udp%3A%2F%2Ftracker.coppersurfer.tk%3A6969&amp;tr=udp%3A%2F%2Fexodus.desync.com%3A6969","seeders":0,"leechers":1,"uploader":"User_01","files":-1,"time":1315413116,"description":"Infamous Assassinations is a 2007 British documentary television series about high-profile murders and attempted murders of public figures. It is currently being shown on Yesterday. Check here for full list\n &lt;a href=&quot;\nhttp://en.wikipedia.org/wiki/Infamous_Assassinations&quot; rel=&quot;nofollow&quot; target=&quot;_NEW&quot;&gt;\nhttp://en.wikipedia.org/wiki/Infamous_Assassinations&lt;/a&gt;\n\nOn 31 October 1984, Indian Prime Minister I. Gandhi was shot dead by her Sikh bodyguards\n\nMediaInfo\nGeneral\nFormat : AVI\nFormat/Info : Audio Video Interleave\nFile size : 291 MiB\nDuration : 23mn 12s\nOverall bit rate : 1 754 Kbps\n\nVideo\nID : 0\nFormat : MPEG-4 Visual\nFormat settings, BVOP : Yes\nFormat settings, QPel : No\nFormat settings, GMC : No warppoints\nFormat settings, Matrix : Default (H.263)\nCodec ID : DIVX\nCodec ID/Info : Project Mayo\nCodec ID/Hint : DivX 4\nDuration : 23mn 3s\nBit rate : 1 499 Kbps\nWidth : 512 pixels\nHeight : 384 pixels\nDisplay aspect ratio : 4:3\nframe rate : 25.000 fps\nResolution : 24 bits\nScan type : Progressive\nBits/(Pixel*frame) : 0.305\nStream size : 247 MiB (85%)\n\nAudio\nFormat : ADPCM\nCodec ID : 11\nCodec ID/Hint : Intel\nDuration : 23mn 12s\nBit rate mode : Constant\nBit rate : 256 Kbps\nChannel(s) : 2 channels\nSampling rate : 32.0 KHz\nResolution : 4 bits\nStream size : 42.5 MiB (15%)\nInterleave, duration : 40 ms (1.00 video frame)","torrent":{"xt":"urn:btih:595c9bcf6d3a93721419e140d893f15436235439","amp;dn":"Infamous.Assassinations.Indira.Gandhi.%282007%29.TVRip.%28DivX%29.","amp;tr":["udp%3A%2F%2Ftracker.openbittorrent.com%3A80","udp%3A%2F%2Fopen.demonii.com%3A1337","udp%3A%2F%2Ftracker.coppersurfer.tk%3A6969","udp%3A%2F%2Fexodus.desync.com%3A6969"],"infoHash":"595c9bcf6d3a93721419e140d893f15436235439","infoHashBuffer":{"type":"Buffer","data":[89,92,155,207,109,58,147,114,20,25,225,64,216,147,241,84,54,35,84,57]},"announce":[],"urlList":[]}}